<svg width="15" height="17" viewBox="0 0 15 17" fill="none" xmlns="http://www.w3.org/2000/svg">
<path d="M12.013 17.0001C11.9126 16.9999 11.8142 16.9727 11.7278 16.9216C11.6415 16.8704 11.5704 16.797 11.522 16.7091L9.64602 13.6661C9.5912 13.5757 9.56247 13.4718 9.56302 13.3661H5.43602C5.43686 13.4717 5.40848 13.5756 5.35402 13.6661L3.47802 16.7091C3.39678 16.8294 3.27177 16.9133 3.12963 16.9428C2.98749 16.9723 2.83944 16.9451 2.71702 16.8671C2.59385 16.7883 2.50541 16.6655 2.46973 16.5237C2.43404 16.3819 2.45382 16.2318 2.52502 16.1041L4.21302 13.3621H1.12502C0.82469 13.3595 0.537653 13.2379 0.326787 13.024C0.115921 12.8102 -0.0015832 12.5214 1.61144e-05 12.2211V3.8531C-0.0015832 3.55276 0.115921 3.26404 0.326787 3.05017C0.537653 2.83631 0.82469 2.71474 1.12502 2.7121H6.75302V1.5711C6.74982 1.49523 6.762 1.41951 6.78882 1.34847C6.81565 1.27744 6.85657 1.21256 6.90911 1.15775C6.96166 1.10294 7.02476 1.05933 7.0946 1.02953C7.16444 0.999735 7.23958 0.984375 7.31552 0.984375C7.39145 0.984375 7.46659 0.999735 7.53644 1.02953C7.60628 1.05933 7.66937 1.10294 7.72192 1.15775C7.77447 1.21256 7.81538 1.27744 7.84221 1.34847C7.86904 1.41951 7.88122 1.49523 7.87802 1.5711V2.7121H13.878C14.1777 2.71579 14.4639 2.83779 14.674 3.05151C14.8842 3.26523 15.0014 3.55336 15 3.8531V12.2211C15.0016 12.5214 14.8841 12.8102 14.6732 13.024C14.4624 13.2379 14.1753 13.3595 13.875 13.3621H10.787L12.475 16.1001C12.5332 16.1852 12.5675 16.2844 12.5744 16.3873C12.5812 16.4902 12.5604 16.593 12.514 16.6851C12.4684 16.7766 12.3986 16.8539 12.3123 16.9087C12.2259 16.9635 12.1263 16.9937 12.024 16.9961L12.013 17.0001ZM1.12502 3.8531V12.2211H13.882V3.8531H1.12502Z" fill="#008000"/>
<path d="M4.40297 9.90387C4.45997 9.946 4.52473 9.97645 4.59353 9.99348C4.66232 10.0105 4.73381 10.0138 4.80387 10.0031C4.87394 9.99239 4.9412 9.96797 5.0018 9.93121C5.06239 9.89445 5.11513 9.84608 5.15697 9.78887L6.57097 7.85487L8.06397 9.79687C8.114 9.8645 8.17919 9.91944 8.2543 9.95731C8.32941 9.99517 8.41236 10.0149 8.49647 10.0149C8.58059 10.0149 8.66353 9.99517 8.73865 9.95731C8.81376 9.91944 8.87894 9.8645 8.92897 9.79687L10.724 7.28387C10.7681 7.22661 10.8002 7.16104 10.8185 7.09108C10.8367 7.02112 10.8406 6.9482 10.83 6.87668C10.8194 6.80517 10.7945 6.73652 10.7568 6.67484C10.7191 6.61316 10.6694 6.55971 10.6105 6.51769C10.5517 6.47567 10.485 6.44594 10.4144 6.43027C10.3439 6.4146 10.2708 6.41332 10.1998 6.42649C10.1287 6.43967 10.061 6.46704 10.0007 6.50697C9.94044 6.54689 9.88883 6.59856 9.84897 6.65887L8.47697 8.57987L6.99197 6.64487C6.94162 6.57742 6.87586 6.52298 6.80019 6.48611C6.72452 6.44923 6.64113 6.43098 6.55697 6.43287C6.47371 6.43384 6.3918 6.45413 6.3177 6.49213C6.24361 6.53013 6.17934 6.58481 6.12997 6.65187L4.29197 9.16487C4.21113 9.27844 4.17753 9.41894 4.19823 9.55679C4.21894 9.69464 4.29234 9.81907 4.40297 9.90387Z" fill="#008000"/>
</svg>
