<svg width="14" height="14" viewBox="0 0 14 14" fill="none" xmlns="http://www.w3.org/2000/svg">
<path d="M0.551178 14V10.889C0.537329 10.4609 0.651156 10.0383 0.878178 9.67501L9.79418 0.341013C9.8951 0.233262 10.0171 0.14737 10.1525 0.0886504C10.288 0.0299309 10.434 -0.000366211 10.5817 -0.000366211C10.7293 -0.000366211 10.8754 0.0299309 11.0108 0.0886504C11.1463 0.14737 11.2683 0.233262 11.3692 0.341013L13.2262 2.28501C13.4351 2.50873 13.5513 2.80341 13.5513 3.10951C13.5513 3.41561 13.4351 3.7103 13.2262 3.93401L4.63718 13.222C4.31342 13.4608 3.92518 13.5963 3.52318 13.611L0.551178 14ZM10.5812 1.16601L1.66518 10.5L3.52318 12.445L12.4382 3.11001L10.5812 1.16601Z" fill="white"/>
</svg>
