<svg width="8" height="8" viewBox="0 0 8 8" fill="none" xmlns="http://www.w3.org/2000/svg">
<path d="M2.91497 7.98597C2.7998 7.98599 2.68626 7.95882 2.58357 7.9067C2.48088 7.85457 2.39194 7.77894 2.32397 7.68597L0.38897 5.15197C0.328548 5.07406 0.284376 4.98481 0.259067 4.88951C0.233759 4.79422 0.227829 4.69482 0.24163 4.59719C0.25543 4.49956 0.28868 4.40569 0.33941 4.32115C0.39014 4.2366 0.457319 4.16309 0.53697 4.10497C0.61497 4.04362 0.704573 3.99867 0.80039 3.97284C0.896207 3.947 0.996259 3.94081 1.09453 3.95464C1.1928 3.96846 1.28726 4.00202 1.37223 4.05329C1.4572 4.10456 1.53092 4.17248 1.58897 4.25297L2.84697 5.91797L6.01697 0.814975C6.06524 0.723996 6.13171 0.643917 6.21224 0.579717C6.29277 0.515517 6.38565 0.468568 6.4851 0.441788C6.58455 0.415007 6.68844 0.408968 6.79032 0.424046C6.8922 0.439124 6.9899 0.474996 7.07733 0.529433C7.16475 0.58387 7.24005 0.655708 7.29854 0.740482C7.35702 0.825256 7.39745 0.921153 7.4173 1.02221C7.43715 1.12327 7.436 1.22734 7.41392 1.32793C7.39185 1.42853 7.34931 1.52351 7.28897 1.60697L3.54597 7.63697C3.48245 7.74007 3.39444 7.82588 3.28976 7.88676C3.18509 7.94765 3.06699 7.98173 2.94597 7.98597H2.91497Z" fill="white"/>
</svg>
